<?xml version="1.0" encoding="utf-8"?>
<!-- Generator: Adobe Illustrator 16.0.0, SVG Export Plug-In . SVG Version: 6.00 Build 0)  -->
<!DOCTYPE svg PUBLIC "-//W3C//DTD SVG 1.1//EN" "http://www.w3.org/Graphics/SVG/1.1/DTD/svg11.dtd">
<svg version="1.1" id="master-artboard" xmlns="http://www.w3.org/2000/svg" xmlns:xlink="http://www.w3.org/1999/xlink" x="0px"
	 y="0px" width="167.069px" height="47.823px" viewBox="115.76 26.086 167.069 47.823"
	 enable-background="new 115.76 26.086 167.069 47.823" xml:space="preserve">
<path fill="#FFFFFF" d="M126.021,59.021v8.949c0,1.077,0.521,1.798,1.563,2.162c1.035,0.363,1.553,0.94,1.553,1.731
	c0,0.846-0.469,1.269-1.406,1.269h-10.534c-0.958,0-1.438-0.423-1.438-1.269c0-0.791,0.518-1.368,1.553-1.731
	c1.042-0.364,1.563-1.085,1.563-2.162V33.42c0-1.056-0.521-1.77-1.563-2.141c-1.035-0.377-1.553-0.969-1.553-1.773
	c0-0.854,0.468-1.28,1.406-1.28c1.28-0.063,2.57-0.266,3.872-0.609c1.294-0.342,2.956-0.854,4.984-1.532V53.88l9.674-7.743
	c1.308-1.057,2.459-1.896,3.452-2.519c0.706-0.412,1.392-0.619,2.056-0.619c0.518,0,1.025,0.137,1.521,0.409l2.329,1.427
	c0.462,0.308,0.692,0.661,0.692,1.06c0,0.182-0.052,0.357-0.157,0.524l-1.773,3.977l-2.361-1.207
	c-0.503-0.252-0.972-0.378-1.405-0.378c-0.497,0-0.983,0.179-1.458,0.535c-3.008,2.238-5.488,4.124-7.439,5.655l10.366,10.114
	c2.175,2.113,3.553,3.303,4.134,3.568c0.371,0.167,0.734,0.251,1.091,0.251c0.14,0,0.294-0.01,0.462-0.031
	c0.209-0.063,0.427-0.094,0.65-0.094c0.769,0,1.297,0.301,1.584,0.902c0.063,0.209,0.095,0.378,0.095,0.503
	c0,0.455-0.238,0.787-0.714,0.997l-1.993,0.924c-1.196,0.538-2.326,0.807-3.389,0.807c-0.72,0-1.402-0.133-2.046-0.397
	c-1.455-0.581-2.774-1.452-3.956-2.612l-11.258-10.944c0.084-0.083,0.126-0.137,0.126-0.157
	C126.283,58.832,126.189,58.896,126.021,59.021z M175.711,70.772l-7.46,2.738c-0.77,0.266-1.423,0.398-1.962,0.398h-1.3
	c-3.197-0.161-5.915-1.423-8.153-3.787c-2.259-2.406-3.543-5.319-3.851-8.74c-0.084-0.874-0.126-1.725-0.126-2.55
	c0-1.099,0.07-2.168,0.21-3.211c0.273-1.839,0.99-3.672,2.15-5.498c0.56-0.979,1.536-1.997,2.927-3.053
	c0.518-0.35,1.088-0.661,1.71-0.934c1.679-0.623,3.351-1.242,5.016-1.857c1.672-0.622,3.347-1.245,5.026-1.868
	c0.454-0.168,0.892-0.251,1.312-0.251h0.178c1.413,0.063,3.113,0.416,5.099,1.06c0.21,0.063,0.335,0.115,0.377,0.157
	c0.413,0.161,0.941,0.347,1.584,0.557c0.168,0.063,0.325,0.094,0.472,0.094c0.119,0,0.22-0.032,0.304-0.094
	c0.399-0.329,0.668-0.599,0.808-0.809c0.273-0.356,0.636-0.535,1.091-0.535c0.23,0,0.437,0.042,0.619,0.125
	c0.769,0.273,1.154,0.668,1.154,1.186v24.069c0,1.077,0.518,1.798,1.553,2.162c1.035,0.363,1.553,0.94,1.553,1.731
	c0,0.846-0.476,1.269-1.427,1.269h-7.555c-0.874,0-1.312-0.342-1.312-1.028V70.772 M175.711,48.812
	c-0.665-0.622-1.644-1.245-2.938-1.868c-1.294-0.616-2.417-0.944-3.369-0.986h-0.094c-0.294,0-0.605,0.06-0.934,0.179
	c-0.749,0.273-1.49,0.549-2.225,0.829c-0.735,0.28-1.476,0.553-2.224,0.818c-0.392,0.168-0.703,0.378-0.934,0.629
	c-1.203,1.287-2.012,2.851-2.424,4.69c-0.357,1.454-0.536,2.886-0.536,4.291c0,0.44,0.021,0.898,0.063,1.375
	c0.231,2.882,1.011,5.214,2.34,6.997c1.28,1.805,2.875,2.967,4.784,3.485c0.707,0.201,1.424,0.304,2.151,0.304
	c0.224,0,0.452-0.012,0.682-0.031c0.371-0.035,0.836-0.147,1.396-0.336c0.476-0.168,1.224-0.444,2.245-0.829
	c1.015-0.386,1.686-0.637,2.015-0.756V48.812z M205.091,42.097c3.196,0.168,6.33,1.203,9.4,3.105l-0.691,5.792
	c-0.099,0.686-0.521,1.028-1.271,1.028h-0.125c-0.602-0.042-1.067-0.426-1.396-1.153c-0.685-1.476-1.686-2.69-2.999-3.642
	c-1.323-0.951-2.718-1.458-4.188-1.521h-0.095c-1.14,0-2.259,0.29-3.357,0.871c-1.078,0.559-1.742,1.43-1.994,2.612
	c-0.105,0.433-0.157,0.818-0.157,1.154c0,1.077,0.458,1.832,1.374,2.267c1.406,0.706,3.054,1.276,4.942,1.71
	c2.735,0.603,5.271,1.448,7.605,2.54c2.33,1.084,3.61,3.368,3.841,6.851v0.314c0,1.637-0.633,3.273-1.898,4.91
	c-1.371,1.784-3.351,3.12-5.939,4.008c-1.595,0.547-3.357,0.847-5.288,0.903h-0.871c-2.629,0-5.273-0.381-7.931-1.144l-2.676-7.25
	l0.095-0.746c0.042-0.685,0.489-1.027,1.343-1.027h0.147c0.518,0.105,0.944,0.49,1.28,1.154c0.909,1.944,1.993,3.309,3.252,4.092
	c1.252,0.776,2.843,1.196,4.774,1.259h0.367c1.35,0,2.854-0.322,4.512-0.966c1.637-0.644,2.486-1.804,2.549-3.482v-0.188
	c0-1.952-0.881-3.176-2.644-3.673c-2.196-0.622-4.124-1.172-5.781-1.646c-2.14-0.581-4.151-1.516-6.033-2.802
	c-1.973-1.322-2.958-3.26-2.958-5.813v-0.158c0.021-3.42,1.377-5.875,4.07-7.366c2.385-1.35,5.03-2.024,7.933-2.024
	C204.556,42.066,204.825,42.076,205.091,42.097z M243.46,70.772l-7.459,2.738c-0.77,0.266-1.424,0.398-1.962,0.398h-1.302
	c-3.196-0.161-5.914-1.423-8.151-3.787c-2.26-2.406-3.544-5.319-3.852-8.74c-0.084-0.874-0.126-1.725-0.126-2.55
	c0-1.099,0.07-2.168,0.21-3.211c0.272-1.839,0.989-3.672,2.151-5.498c0.559-0.979,1.535-1.997,2.927-3.053
	c0.518-0.35,1.088-0.661,1.71-0.934c1.679-0.623,3.351-1.242,5.016-1.857c1.672-0.622,3.348-1.245,5.025-1.868
	c0.455-0.168,0.892-0.251,1.312-0.251h0.179c1.413,0.063,3.113,0.416,5.1,1.06c0.209,0.063,0.336,0.115,0.377,0.157
	c0.412,0.161,0.941,0.347,1.585,0.557c0.167,0.063,0.324,0.094,0.472,0.094c0.12,0,0.221-0.032,0.305-0.094
	c0.398-0.329,0.668-0.599,0.809-0.809c0.272-0.356,0.636-0.535,1.091-0.535c0.23,0,0.437,0.042,0.618,0.125
	c0.771,0.273,1.155,0.668,1.155,1.186v24.069c0,1.077,0.518,1.798,1.553,2.162c1.034,0.363,1.553,0.94,1.553,1.731
	c0,0.846-0.476,1.269-1.428,1.269h-7.555c-0.873,0-1.312-0.342-1.312-1.028V70.772 M243.46,48.812
	c-0.664-0.622-1.644-1.245-2.937-1.868c-1.295-0.616-2.418-0.944-3.369-0.986h-0.094c-0.294,0-0.605,0.06-0.935,0.179
	c-0.748,0.273-1.489,0.549-2.224,0.829c-0.735,0.28-1.476,0.553-2.226,0.818c-0.391,0.168-0.702,0.378-0.933,0.629
	c-1.203,1.287-2.011,2.851-2.424,4.69c-0.357,1.454-0.536,2.886-0.536,4.291c0,0.44,0.022,0.898,0.063,1.375
	c0.231,2.882,1.011,5.214,2.34,6.997c1.281,1.805,2.875,2.967,4.785,3.485c0.706,0.201,1.423,0.304,2.15,0.304
	c0.225,0,0.451-0.012,0.683-0.031c0.371-0.035,0.835-0.147,1.396-0.336c0.476-0.168,1.225-0.444,2.245-0.829
	c1.014-0.386,1.686-0.637,2.014-0.756V48.812z M270.857,54.006v13.965c0,1.077,0.511,1.798,1.532,2.162
	c1.028,0.363,1.543,0.94,1.543,1.731c0,0.846-0.466,1.269-1.396,1.269h-10.546c-0.95,0-1.426-0.423-1.426-1.269
	c0-0.791,0.517-1.368,1.553-1.731c1.034-0.364,1.552-1.085,1.552-2.162V48.067c0-1.035-0.518-1.739-1.552-2.109
	c-1.036-0.377-1.553-0.969-1.553-1.773c0-0.854,0.464-1.28,1.396-1.28c1.286-0.063,2.577-0.269,3.871-0.619
	c1.294-0.357,2.97-0.875,5.025-1.553v4.04l3.232-1.217c1.594-0.602,2.85-1.056,3.766-1.364c0.372-0.105,0.784-0.158,1.238-0.158
	c0.875,0,2.119,0.28,3.735,0.84l-0.776,8.834h-2.771c-0.812-3.029-2.157-4.543-4.039-4.543c-0.21,0-0.409,0.01-0.599,0.031
	c-1.266,0.146-2.195,0.856-2.79,2.129C271.253,50.606,270.92,52.166,270.857,54.006z"/>
</svg>
