<?xml version="1.0" encoding="utf-8"?>
<!-- Generator: Adobe Illustrator 16.0.0, SVG Export Plug-In . SVG Version: 6.00 Build 0)  -->
<!DOCTYPE svg PUBLIC "-//W3C//DTD SVG 1.1//EN" "http://www.w3.org/Graphics/SVG/1.1/DTD/svg11.dtd">
<svg version="1.1" id="Layer_1" xmlns="http://www.w3.org/2000/svg" xmlns:xlink="http://www.w3.org/1999/xlink" x="0px" y="0px"
	 width="400px" height="100px" viewBox="0 0 400 100" enable-background="new 0 0 400 100" xml:space="preserve">
<g>
	<text transform="matrix(1 0 0 1 0.6187 83.3691)" fill="#FFFFFF" font-family="'Neuropol'" font-size="129.5475">kasar</text>
	<g>
		<g>
			<g>
				<path fill="#FFFFFF" d="M259.043,17.825c-5.883,0-10.712,4.792-10.712,10.712c0,5.932,4.781,10.724,10.712,10.724
					c5.933,0,10.738-4.792,10.738-10.724C269.781,22.617,264.927,17.825,259.043,17.825z M259.043,38.281
					c-5.368,0-9.729-4.364-9.729-9.744c0-5.368,4.361-9.731,9.729-9.731c5.371,0,9.757,4.364,9.757,9.731
					C268.798,33.917,264.413,38.281,259.043,38.281L259.043,38.281z M263.185,32.837v-1.164c0-0.748-0.193-1.372-0.514-1.875
					c-0.316-0.503-0.881-0.859-1.667-1.054c0.688-0.233,1.226-0.625,1.619-1.165c0.394-0.514,0.562-1.103,0.562-1.752
					c0-1.127-0.365-1.986-1.052-2.563c-0.736-0.6-1.717-0.87-3.09-0.87h-4.215v12.441h1.005v-5.613h3.555
					c0.81,0,1.57,0.221,2.009,0.674c0.492,0.428,0.738,1.054,0.738,1.802v1.141c0,0.393,0.049,0.771,0.148,1.152
					c0.072,0.381,0.243,0.625,0.44,0.846h1.027V34.64c-0.192-0.171-0.341-0.428-0.439-0.722
					C263.21,33.611,263.185,33.232,263.185,32.837L263.185,32.837z M258.921,28.365h-3.09v-5.123h3.212
					c1.03,0,1.815,0.233,2.355,0.687c0.538,0.417,0.76,1.054,0.76,1.9c0,0.759-0.245,1.36-0.76,1.813
					C260.856,28.143,260.024,28.365,258.921,28.365z"/>
			</g>
		</g>
	</g>
</g>
</svg>
